<svg xmlns="http://www.w3.org/2000/svg" viewBox="0 0 64 64" role="img" aria-label="WhatsApp">
  <defs>
    <linearGradient id="g" x1="0" x2="1" y1="0" y2="1">
      <stop offset="0" stop-color="#25D366"/>
      <stop offset="1" stop-color="#128C7E"/>
    </linearGradient>
  </defs>
  <circle cx="32" cy="32" r="30" fill="url(#g)"/>
  <path d="M20 49l2.6-7.7A18 18 0 1114 32c0 3.1.8 6 2.3 8.5L20 49z" fill="#fff" opacity=".96"/>
  <path d="M27.6 22.8c-.5-1.1-1-1.1-1.5-1.1h-1.3c-.5 0-1.2.2-1.7.9-.6.6-2.2 2.1-2.2 5.1s2.3 5.9 2.6 6.3c.3.4 4.4 7 10.9 9.6 5.3 2.1 6.5 1.7 7.7 1.6 1.2-.1 3.7-1.5 4.2-2.9.5-1.4.5-2.6.4-2.9-.1-.3-.5-.4-1.1-.7s-3.7-1.8-4.2-2c-.6-.2-.9-.3-1.3.3-.4.6-1.5 2-1.8 2.4-.3.4-.7.5-1.3.2-.6-.3-2.4-.9-4.6-2.9-1.7-1.5-2.9-3.4-3.3-4-.3-.6 0-.9.2-1.2.3-.3.6-.7.9-1 .3-.3.4-.6.6-1 .2-.4.1-.7 0-1-.1-.3-1.2-3.1-1.7-4.3z" fill="url(#g)"/>
</svg>
